      <svg version="1" xmlns="http://www.w3.org/2000/svg" viewBox="0 0 427 427">
        <g fill="#1a8456">
          <path
            d="M214 427h-11c0-22 6-34 12-45 5-10 10-20 10-40s-5-30-10-40c-6-11-12-23-12-46 0-22 6-34 12-45 5-10 10-20 10-40s-5-30-10-40c-6-11-12-23-12-46s6-34 12-45c5-10 10-20 10-40h11c0 23-6 34-12 45-5 11-10 20-10 40s5 30 10 41c6 11 12 22 12 45s-6 34-12 45c-5 11-10 20-10 40 0 21 5 30 10 41 6 11 12 22 12 45s-6 34-12 45c-5 11-10 20-10 40z"
          />
          <path
            d="M209 76c-30 0-54-24-54-54 30 0 54 25 54 54zM209 239c-30 0-54-24-54-54 30 0 54 24 54 54zM227 372c-30 0-54-24-54-54 30 0 54 24 54 54zM218 123c30 0 54-24 54-54-30 0-54 24-54 54zM218 286c30 0 54-24 54-54-30 0-54 24-54 54zM79 427H68c0-22 5-34 11-45 5-10 10-20 10-40s-5-30-10-40c-6-11-11-23-11-46 0-22 5-34 11-45 5-10 10-20 10-40s-5-30-10-40c-6-11-11-23-11-46h11c0 21 4 30 10 41 5 11 11 22 11 45s-6 34-11 45c-6 11-10 20-10 40 0 21 4 30 10 41 5 11 11 22 11 45s-6 34-11 45c-6 11-10 20-10 40z"
          />
          <path
            d="M73 239c-30 0-54-24-54-54 30 0 54 24 54 54zM92 369c-30 0-54-24-54-54 30 0 54 24 54 54zM82 123c30 0 54-24 54-54-30 0-54 24-54 54zM82 286c30 0 54-24 54-54-30 0-54 24-54 54zM348 427h-11c0-22 6-34 11-45 5-10 10-20 10-40s-5-30-10-40c-5-11-11-23-11-46 0-22 6-34 11-45 5-10 10-20 10-40h11c0 23-6 34-11 45s-10 20-10 40c0 21 5 30 10 41s11 22 11 45-6 34-11 45-10 20-10 40z"
          />
          <path
            d="M342 239c-29 0-54-24-54-54 30 0 54 24 54 54zM356 373c-30 0-54-24-54-54 30 0 54 25 54 54zM354 302c30 0 54-24 54-54-29 0-54 24-54 54z"
          />
        </g>
          <g fill="#80d8b6">
    <path d="M256 329l-35 27v-54l40-22 14-32 42-12-3-13-32 10 15-33 47-18 7-53 44-31-7-10-34 23 3-23-13-2-10 76-36-42-10 8 39 47-33 12-32-38 8-45-13-2-7 40-37-15-5 12 43 18 33 39-29 66-17-28-11 7 20 32-32 18-42-24 21-22-10-9-19 20-9-28 33-43-10-8-33 43-46-9 43-61-10-7-39 55-7-68 30-57 55-12-2-12-47 9 18-54-12-4-16 47-13-36-12 4 18 51-26 49-30-54-11 6 35 64 3 29-35-12-5 12 42 15 4 46 61 12 9 27-34-7-2 13 43 8 48 28v119h13v-49l43-33z"/>
    <path d="M165 349l-22-31-10 8 24 34v17l-15-9-7 11 22 14v28h13v-59l22-18-9-10zM347 352l-26 6-19-35 22-34-11-7-19 29-14-15-9 8 18 22 20 37-30 17v41h13v-34l28-16 29-6zM99 365l-14 13v-78l19-23-10-8-15 17-19-28 8-30-12-4-6 21-14-18-10 8 22 28 24 36v49l-21-19-8 10 29 27v55h13v-25l22-21z"/>
  </g>
      </svg>